<svg xmlns="http://www.w3.org/2000/svg" xmlns:xlink="http://www.w3.org/1999/xlink" viewBox="0 0 135.46 135.47"><defs><style>.a{fill:url(#a);}.b{fill:url(#b);}.c{fill:url(#c);}.d{fill:url(#d);}.e{fill:url(#e);}.f{fill:url(#f);}.g{fill:url(#g);}.h{fill:url(#h);}.i{fill:url(#i);}.j{fill:url(#j);}.k{fill:url(#k);}.l{fill:url(#l);}.m{fill:url(#m);}.n{fill:url(#n);}.o{fill:url(#o);}.p{fill:url(#p);}.q{fill:url(#q);}</style><radialGradient id="a" cx="17.74" cy="17.74" r="17.74" gradientUnits="userSpaceOnUse"><stop offset="0" stop-color="#00e1e1"/><stop offset="0.26" stop-color="#00e4e4"/><stop offset="0.4" stop-color="#00eaea"/><stop offset="0.44" stop-color="#00eaea" stop-opacity="0.98"/><stop offset="0.48" stop-color="#00ecec" stop-opacity="0.92"/><stop offset="0.53" stop-color="#0ee" stop-opacity="0.81"/><stop offset="0.58" stop-color="#00f1f1" stop-opacity="0.66"/><stop offset="0.63" stop-color="#00f5f5" stop-opacity="0.48"/><stop offset="0.68" stop-color="#00fafa" stop-opacity="0.25"/><stop offset="0.73" stop-color="aqua" stop-opacity="0"/></radialGradient><radialGradient id="b" cx="-7902.41" cy="-7985.25" r="17.74" gradientTransform="translate(7920.15 8027.99)" xlink:href="#a"/><radialGradient id="c" cx="-7902.41" cy="-7985.25" r="17.74" gradientTransform="translate(7945.14 8027.99)" xlink:href="#a"/><radialGradient id="d" cx="-7902.41" cy="-7985.25" r="17.74" gradientTransform="translate(7920.15 8052.98)" xlink:href="#a"/><radialGradient id="e" cx="-7902.41" cy="-7985.25" r="17.74" gradientTransform="translate(7920.15 8077.98)" xlink:href="#a"/><radialGradient id="f" cx="-7902.41" cy="-7985.25" r="17.74" gradientTransform="translate(7945.14 8052.98)" xlink:href="#a"/><radialGradient id="g" cx="-7902.41" cy="-7985.25" r="17.74" gradientTransform="translate(7970.14 8052.98)" xlink:href="#a"/><radialGradient id="h" cx="-7902.41" cy="-7985.25" r="17.74" gradientTransform="translate(7995.14 8052.98)" xlink:href="#a"/><radialGradient id="i" cx="-7902.41" cy="-7985.25" r="17.74" gradientTransform="translate(8020.13 8052.98)" xlink:href="#a"/><radialGradient id="j" cx="-7902.41" cy="-7985.25" r="17.74" gradientTransform="translate(7945.14 8077.98)" xlink:href="#a"/><radialGradient id="k" cx="-7902.41" cy="-7985.25" r="17.74" gradientTransform="translate(7995.14 8027.99)" xlink:href="#a"/><radialGradient id="l" cx="-7902.41" cy="-7985.25" r="17.74" gradientTransform="translate(7995.14 8077.98)" xlink:href="#a"/><radialGradient id="m" cx="-7902.41" cy="-7985.25" r="17.74" gradientTransform="translate(8020.13 8027.99)" xlink:href="#a"/><radialGradient id="n" cx="-7902.41" cy="-7985.25" r="17.74" gradientTransform="translate(8020.13 8077.98)" xlink:href="#a"/><radialGradient id="o" cx="-7902.41" cy="-7985.25" r="17.74" gradientTransform="translate(7920.15 8102.98)" xlink:href="#a"/><radialGradient id="p" cx="-7902.41" cy="-7985.25" r="17.74" gradientTransform="translate(8020.13 8002.99)" xlink:href="#a"/><radialGradient id="q" cx="-7902.41" cy="-7985.25" r="17.74" gradientTransform="translate(8020.13 8102.98)" xlink:href="#a"/></defs><path class="a" d="M17.74,0A17.74,17.74,0,1,0,35.48,17.74,17.74,17.74,0,0,0,17.74,0ZM30.19,18.17h-.36c-5.68,0-11.7,6-11.7,11.71v.35h-.87v-.35c0-5.69-6-11.71-11.71-11.71H5.2V17.3h.35c5.69,0,11.71-6,11.71-11.71V5.24h.87v.35c0,5.69,6,11.71,11.7,11.71h.36Z"/><path class="b" d="M17.74,25A17.74,17.74,0,1,0,35.48,42.74,17.74,17.74,0,0,0,17.74,25ZM30.19,43.17h-.36c-5.68,0-11.7,6-11.7,11.7v.36h-.87v-.36c0-5.69-6-11.7-11.71-11.7H5.2V42.3h.35c5.69,0,11.71-6,11.71-11.71v-.36h.87v.36c0,5.69,6,11.71,11.7,11.71h.36Z"/><path class="c" d="M42.73,25A17.74,17.74,0,1,0,60.47,42.74,17.73,17.73,0,0,0,42.73,25ZM55.19,43.17h-.36c-5.69,0-11.7,6-11.7,11.7v.36h-.88v-.36c0-5.69-6-11.7-11.7-11.7h-.36V42.3h.36c5.69,0,11.7-6,11.7-11.71v-.36h.88v.36c0,5.69,6,11.71,11.7,11.71h.36Z"/><path class="d" d="M17.74,50A17.74,17.74,0,1,0,35.48,67.73,17.74,17.74,0,0,0,17.74,50ZM30.19,68.16h-.36c-5.68,0-11.7,6-11.7,11.71v.36h-.87v-.36c0-5.69-6-11.71-11.71-11.71H5.2v-.87h.35c5.69,0,11.71-6,11.71-11.7v-.36h.87v.36c0,5.69,6,11.7,11.7,11.7h.36Z"/><path class="e" d="M17.74,75A17.74,17.74,0,1,0,35.48,92.73,17.74,17.74,0,0,0,17.74,75ZM30.19,93.16h-.36c-5.68,0-11.7,6-11.7,11.71v.35h-.87v-.35c0-5.69-6-11.71-11.71-11.71H5.2v-.87h.35c5.69,0,11.71-6,11.71-11.71v-.35h.87v.35c0,5.69,6,11.71,11.7,11.71h.36Z"/><path class="f" d="M42.73,50A17.74,17.74,0,1,0,60.47,67.73,17.74,17.74,0,0,0,42.73,50ZM55.19,68.16h-.36c-5.69,0-11.7,6-11.7,11.71v.36h-.88v-.36c0-5.69-6-11.71-11.7-11.71h-.36v-.87h.36c5.69,0,11.7-6,11.7-11.7v-.36h.88v.36c0,5.69,6,11.7,11.7,11.7h.36Z"/><path class="g" d="M67.73,50A17.74,17.74,0,1,0,85.47,67.73,17.74,17.74,0,0,0,67.73,50ZM80.18,68.16h-.35c-5.69,0-11.71,6-11.71,11.71v.36h-.87v-.36c0-5.69-6-11.71-11.7-11.71h-.36v-.87h.36c5.68,0,11.7-6,11.7-11.7v-.36h.87v.36c0,5.69,6,11.7,11.71,11.7h.35Z"/><path class="h" d="M92.73,50a17.74,17.74,0,1,0,17.74,17.74A17.74,17.74,0,0,0,92.73,50Zm12.45,18.17h-.36c-5.69,0-11.7,6-11.7,11.71v.36h-.87v-.36c0-5.69-6-11.71-11.71-11.71h-.36v-.87h.36c5.69,0,11.71-6,11.71-11.7v-.36h.87v.36c0,5.69,6,11.7,11.7,11.7h.36Z"/><path class="i" d="M117.72,50a17.74,17.74,0,1,0,17.74,17.74A17.75,17.75,0,0,0,117.72,50Zm12.46,18.17h-.36c-5.69,0-11.71,6-11.71,11.71v.36h-.87v-.36c0-5.69-6-11.71-11.7-11.71h-.36v-.87h.36c5.69,0,11.7-6,11.7-11.7v-.36h.87v.36c0,5.69,6,11.7,11.71,11.7h.36Z"/><path class="j" d="M42.73,75A17.74,17.74,0,1,0,60.47,92.73,17.73,17.73,0,0,0,42.73,75ZM55.19,93.16h-.36c-5.69,0-11.7,6-11.7,11.71v.35h-.88v-.35c0-5.69-6-11.71-11.7-11.71h-.36v-.87h.36c5.69,0,11.7-6,11.7-11.71v-.35h.88v.35c0,5.69,6,11.71,11.7,11.71h.36Z"/><path class="k" d="M92.73,25a17.74,17.74,0,1,0,17.74,17.74A17.74,17.74,0,0,0,92.73,25Zm12.45,18.17h-.36c-5.69,0-11.7,6-11.7,11.7v.36h-.87v-.36c0-5.69-6-11.7-11.71-11.7h-.36V42.3h.36c5.69,0,11.71-6,11.71-11.71v-.36h.87v.36c0,5.69,6,11.71,11.7,11.71h.36Z"/><path class="l" d="M92.73,75a17.74,17.74,0,1,0,17.74,17.74A17.74,17.74,0,0,0,92.73,75Zm12.45,18.17h-.36c-5.69,0-11.7,6-11.7,11.71v.35h-.87v-.35c0-5.69-6-11.71-11.71-11.71h-.36v-.87h.36c5.69,0,11.71-6,11.71-11.71v-.35h.87v.35c0,5.69,6,11.71,11.7,11.71h.36Z"/><path class="m" d="M117.72,25a17.74,17.74,0,1,0,17.74,17.74A17.74,17.74,0,0,0,117.72,25Zm12.46,18.17h-.36c-5.69,0-11.71,6-11.71,11.7v.36h-.87v-.36c0-5.69-6-11.7-11.7-11.7h-.36V42.3h.36c5.69,0,11.7-6,11.7-11.71v-.36h.87v.36c0,5.69,6,11.71,11.71,11.71h.36Z"/><path class="n" d="M117.72,75a17.74,17.74,0,1,0,17.74,17.74A17.74,17.74,0,0,0,117.72,75Zm12.46,18.17h-.36c-5.69,0-11.71,6-11.71,11.71v.35h-.87v-.35c0-5.69-6-11.71-11.7-11.71h-.36v-.87h.36c5.69,0,11.7-6,11.7-11.71v-.35h.87v.35c0,5.69,6,11.71,11.71,11.71h.36Z"/><path class="o" d="M17.74,100a17.74,17.74,0,1,0,17.74,17.74A17.74,17.74,0,0,0,17.74,100Zm12.45,18.17h-.36c-5.68,0-11.7,6-11.7,11.7v.36h-.87v-.36c0-5.68-6-11.7-11.71-11.7H5.2v-.87h.35c5.69,0,11.71-6,11.71-11.71v-.36h.87v.36c0,5.69,6,11.71,11.7,11.71h.36Z"/><path class="p" d="M117.72,0a17.74,17.74,0,1,0,17.74,17.74A17.74,17.74,0,0,0,117.72,0Zm12.46,18.17h-.36c-5.69,0-11.71,6-11.71,11.71v.35h-.87v-.35c0-5.69-6-11.71-11.7-11.71h-.36V17.3h.36c5.69,0,11.7-6,11.7-11.71V5.24h.87v.35c0,5.69,6,11.71,11.71,11.71h.36Z"/><path class="q" d="M117.72,100a17.74,17.74,0,1,0,17.74,17.74A17.74,17.74,0,0,0,117.72,100Zm12.46,18.17h-.36c-5.69,0-11.71,6-11.71,11.7v.36h-.87v-.36c0-5.68-6-11.7-11.7-11.7h-.36v-.87h.36c5.69,0,11.7-6,11.7-11.71v-.36h.87v.36c0,5.69,6,11.71,11.71,11.71h.36Z"/></svg>